{
    "asset" : {
        "generator" : "Khronos glTF Blender I/O v1.3.48",
        "version" : "2.0"
    },
    "scene" : 0,
    "scenes" : [
        {
            "name" : "Scene",
            "nodes" : [
                0,
                1
            ]
        }
    ],
    "nodes" : [
        {
            "mesh" : 0,
            "name" : "Cylinder",
            "rotation" : [
                -0.03527118265628815,
                0,
                0,
                0.9993777871131897
            ],
            "scale" : [
                0.3945644199848175,
                0.3945644199848175,
                0.3945644199848175
            ],
            "translation" : [
                5.246009826660156,
                0.43739545345306396,
                -2
            ]
        },
        {
            "mesh" : 1,
            "name" : "Icosphere.003",
            "rotation" : [
                -0.12676362693309784,
                0.1718275398015976,
                -0.02230149880051613,
                0.976682722568512
            ],
            "scale" : [
                1.7450309991836548,
                1.6739557981491089,
                1.7450312376022339
            ],
            "translation" : [
                4.941067218780518,
                3.8315494060516357,
                -2.00370192527771
            ]
        }
    ],
    "materials" : [
        {
            "doubleSided" : true,
            "emissiveFactor" : [
                0,
                0,
                0
            ],
            "name" : "Material.007",
            "pbrMetallicRoughness" : {
                "baseColorFactor" : [
                    0.29613837599754333,
                    0.08437620848417282,
                    0.03071346879005432,
                    1
                ],
                "metallicFactor" : 0,
                "roughnessFactor" : 0.5
            }
        },
        {
            "doubleSided" : true,
            "emissiveFactor" : [
                0,
                0,
                0
            ],
            "name" : "grass",
            "pbrMetallicRoughness" : {
                "baseColorFactor" : [
                    0.12213869392871857,
                    0.7454043626785278,
                    0.14412856101989746,
                    1
                ],
                "metallicFactor" : 0,
                "roughnessFactor" : 0.5
            }
        }
    ],
    "meshes" : [
        {
            "name" : "Cylinder",
            "primitives" : [
                {
                    "attributes" : {
                        "POSITION" : 0,
                        "NORMAL" : 1
                    },
                    "indices" : 2,
                    "material" : 0
                }
            ]
        },
        {
            "name" : "Icosphere.003",
            "primitives" : [
                {
                    "attributes" : {
                        "POSITION" : 3,
                        "NORMAL" : 4
                    },
                    "indices" : 5,
                    "material" : 1
                }
            ]
        }
    ],
    "accessors" : [
        {
            "bufferView" : 0,
            "componentType" : 5126,
            "count" : 36,
            "max" : [
                0.866025447845459,
                5.902040958404541,
                1
            ],
            "min" : [
                -0.866025447845459,
                -1,
                -1
            ],
            "type" : "VEC3"
        },
        {
            "bufferView" : 1,
            "componentType" : 5126,
            "count" : 36,
            "type" : "VEC3"
        },
        {
            "bufferView" : 2,
            "componentType" : 5123,
            "count" : 60,
            "type" : "SCALAR"
        },
        {
            "bufferView" : 3,
            "componentType" : 5126,
            "count" : 60,
            "max" : [
                0.8944249749183655,
                1,
                0.8506399989128113
            ],
            "min" : [
                -0.8944249749183655,
                -1,
                -0.8506399989128113
            ],
            "type" : "VEC3"
        },
        {
            "bufferView" : 4,
            "componentType" : 5126,
            "count" : 60,
            "type" : "VEC3"
        },
        {
            "bufferView" : 5,
            "componentType" : 5123,
            "count" : 60,
            "type" : "SCALAR"
        }
    ],
    "bufferViews" : [
        {
            "buffer" : 0,
            "byteLength" : 432,
            "byteOffset" : 0
        },
        {
            "buffer" : 0,
            "byteLength" : 432,
            "byteOffset" : 432
        },
        {
            "buffer" : 0,
            "byteLength" : 120,
            "byteOffset" : 864
        },
        {
            "buffer" : 0,
            "byteLength" : 720,
            "byteOffset" : 984
        },
        {
            "buffer" : 0,
            "byteLength" : 720,
            "byteOffset" : 1704
        },
        {
            "buffer" : 0,
            "byteLength" : 120,
            "byteOffset" : 2424
        }
    ],
    "buffers" : [
        {
            "byteLength" : 2544,
            "uri" : "data:application/octet-stream;base64,"
        }
    ]
}
